<svg xmlns="http://www.w3.org/2000/svg"><defs><symbol viewBox="0 0 650 720" id="approved-intro-dark"><path d="M 335.500 39.569 C 317.771 41.981, 304.489 45.554, 284.582 53.267 C 233.839 72.928, 184.585 112.969, 169.080 147.163 C 165.521 155.012, 163.608 164.900, 164.499 170.840 C 165.188 175.433, 166.890 180.002, 167.911 179.997 C 168.235 179.996, 168.576 177.345, 168.670 174.106 C 169.139 157.816, 191.920 128.325, 220.500 107.007 C 235.139 96.088, 255.068 83.916, 270.209 76.646 C 293.131 65.640, 308.937 61.083, 335 57.966 C 347.403 56.483, 358.519 57.601, 367.581 61.244 C 374.784 64.139, 377.191 67.260, 377.790 74.475 C 378.285 80.453, 376.971 86.450, 373.363 94.672 C 369.521 103.431, 355.503 126.025, 348.033 135.500 C 328.573 160.184, 324.986 164.668, 323.072 166.708 C 321.933 167.923, 321 169.256, 321 169.672 C 321 170.087, 327.780 163.469, 336.066 154.964 C 352.574 138.021, 366.148 122.138, 370.434 114.750 C 371.950 112.138, 373.688 109.693, 374.298 109.316 C 374.908 108.939, 374.262 110.626, 372.864 113.065 C 371.466 115.504, 368.824 120.200, 366.994 123.500 C 365.164 126.800, 363.023 130.175, 362.238 131 C 361.452 131.825, 358.715 135.994, 356.155 140.265 C 349.151 151.950, 338.706 165.894, 327 179.188 C 311.413 196.890, 304.361 205.791, 300.480 212.662 C 298.566 216.052, 297 219.038, 297 219.299 C 297 219.559, 298.531 220.498, 300.401 221.386 C 304.246 223.211, 316.051 223.537, 322.500 221.997 C 324.700 221.472, 328.525 220.759, 331 220.413 C 333.475 220.067, 336.175 219.441, 337 219.023 C 337.825 218.605, 341.650 217.699, 345.500 217.009 C 349.350 216.320, 355.769 215.130, 359.765 214.366 C 366.438 213.090, 379.624 211.698, 396 210.541 L 402.500 210.082 394.500 211.442 C 390.100 212.189, 379.975 213.571, 372 214.512 C 364.025 215.454, 356.825 216.653, 356 217.179 C 354.959 217.841, 355.552 217.956, 357.940 217.553 C 364.935 216.375, 401.740 214.810, 408.834 215.390 C 428.108 216.964, 442.988 224.166, 446.621 233.678 C 448.042 237.399, 448.111 238.707, 447.072 242.283 C 443.895 253.227, 430.128 267.785, 411 280.429 C 396.697 289.883, 386.994 295.788, 357.500 312.988 C 334.137 326.613, 313.109 339.781, 302.482 347.441 C 273.198 368.551, 250.995 388.770, 240 404.339 C 236.975 408.623, 233.202 413.787, 231.615 415.814 L 228.730 419.500 229.378 416.500 C 229.735 414.850, 230.667 409.900, 231.449 405.500 C 233.357 394.776, 241.797 359.361, 253.135 314.500 C 259.882 287.808, 269.717 255.154, 269.927 258.749 C 269.967 259.436, 267.764 267.781, 265.031 277.294 C 260.690 292.406, 257.184 306.227, 248.873 340.998 C 247.756 345.672, 246.649 352.647, 246.414 356.498 C 246.009 363.121, 246.062 363.338, 247.393 360.500 C 248.168 358.850, 249.795 352.775, 251.011 347 C 254.078 332.421, 264.107 294.046, 270.480 272.500 C 276.581 251.874, 281.998 236.127, 291.860 210.353 C 305.858 173.767, 318.562 132.499, 321.106 115.349 C 322.585 105.383, 321.297 97.389, 317.387 92.263 C 314.587 88.592, 309.458 85.008, 307 85.006 C 304.588 85.004, 299.710 97.585, 276.180 164.500 C 267.277 189.819, 254.144 231.906, 247.940 255 C 239.213 287.488, 232.177 321.746, 227.054 356.693 C 224.374 374.976, 227.551 367.165, 230.980 347.039 C 233.458 332.495, 249.371 267.515, 254.377 251.500 C 256.267 245.450, 259.267 235.775, 261.043 230 C 264.617 218.375, 284.856 158.775, 288.275 149.806 C 293.153 137.012, 290.593 146.448, 281.672 174.146 C 263.544 230.430, 259.780 243.211, 249.617 283 C 242.973 309.011, 237.887 328.574, 235.577 337 C 234.295 341.675, 232.478 349.775, 231.539 355 C 230.600 360.225, 229.204 367.200, 228.436 370.500 C 227.669 373.800, 225.902 383.475, 224.511 392 C 223.120 400.525, 221.560 408.479, 221.046 409.676 C 220.236 411.559, 220.825 412.462, 225.418 416.386 L 230.726 420.921 232.667 418.710 C 233.735 417.495, 236.591 413.800, 239.015 410.500 C 244.896 402.493, 258.536 388.414, 269 379.548 C 287.434 363.930, 313.843 345.853, 349 324.788 C 364.125 315.726, 384.375 303.285, 394 297.141 C 403.625 290.997, 409.992 287.215, 408.149 288.735 C 403.643 292.453, 372.265 312.689, 352.500 324.623 C 322.889 342.503, 289.542 365.515, 271 380.867 C 260.881 389.245, 247.807 402.412, 240.270 411.818 C 236.163 416.943, 232.960 421.272, 233.151 421.438 C 233.343 421.603, 236.614 423.616, 240.420 425.911 L 247.340 430.082 258.351 418.913 C 271.468 405.607, 284.547 394.542, 295.500 387.484 C 310.960 377.522, 336.766 363.092, 363.500 349.462 C 414.344 323.539, 435.392 310.196, 454.805 291.582 C 469.739 277.262, 477.017 263.337, 476.985 249.145 C 476.967 241.220, 475.609 236.419, 471.261 228.897 C 464.073 216.465, 450.342 207.940, 431.230 204.046 C 418.285 201.409, 393.619 201.184, 375.368 203.536 C 360.223 205.489, 340.014 209.735, 326.232 213.862 C 320.585 215.552, 313.770 217.227, 311.086 217.583 C 306.735 218.160, 306.137 218.007, 305.552 216.165 C 304.106 211.607, 308.950 206.268, 328.729 190.623 C 356.629 168.555, 386.361 133.905, 397.452 110.533 C 403.467 97.858, 405.280 90.153, 404.827 79.195 C 404.480 70.791, 404.036 68.786, 401.495 64.141 C 399.882 61.193, 396.251 56.806, 393.425 54.392 C 387.202 49.075, 375.205 43.370, 366.163 41.428 C 359.330 39.960, 340.860 38.840, 335.500 39.569 M 332 45.063 C 322.859 46.222, 313.868 48.677, 299.781 53.861 C 276.286 62.506, 275.476 62.899, 240.171 82.743 C 237.791 84.081, 236.077 85.411, 236.364 85.697 C 236.650 85.984, 238.148 85.366, 239.692 84.323 C 244.414 81.137, 263.037 72.276, 271.500 69.189 C 275.900 67.584, 286.391 63.719, 294.813 60.600 C 310.865 54.655, 324.390 51.067, 340.560 48.465 C 349.359 47.049, 351.807 47.054, 359.898 48.502 C 361.329 48.758, 359.800 48.048, 356.500 46.924 C 349.936 44.689, 340.564 43.977, 332 45.063 M 326 47.561 C 318.506 49.178, 297.765 56.099, 298.428 56.761 C 298.673 57.006, 302.389 56.074, 306.687 54.690 C 316.443 51.548, 326.875 49.091, 337.383 47.459 L 345.500 46.198 339 46.178 C 335.425 46.168, 329.575 46.790, 326 47.561 M 324.500 56 C 322.678 56.783, 322.722 56.859, 325 56.856 C 326.375 56.853, 329.525 56.491, 332 56.051 L 336.500 55.250 331.500 55.195 C 328.750 55.165, 325.600 55.527, 324.500 56 M 287 65.585 C 283.725 66.926, 283.692 66.981, 286.500 66.438 C 288.150 66.119, 289.928 65.440, 290.450 64.929 C 291.648 63.758, 291.303 63.823, 287 65.585 M 251 74.096 C 246.875 76.333, 243.050 78.647, 242.500 79.239 C 241.392 80.431, 256.936 72.287, 258.450 70.882 C 260.152 69.302, 258.621 69.963, 251 74.096 M 401.087 78.500 C 400.923 86.947, 398.713 95.421, 394.032 105.552 C 391.814 110.352, 390.001 114.779, 390.003 115.390 C 390.004 116, 392.276 111.717, 395.051 105.871 C 401.067 93.198, 403.974 81.180, 402.295 75.919 C 401.237 72.604, 401.201 72.682, 401.087 78.500 M 380.199 96.976 C 379.050 99.739, 378.336 102, 378.612 102 C 379.349 102, 383.243 92.910, 382.727 92.393 C 382.484 92.151, 381.347 94.213, 380.199 96.976 M 376.955 129.565 C 373.695 134.304, 358.149 154.122, 357.003 155 C 356.644 155.275, 353.016 159.325, 348.941 164 C 344.865 168.675, 337.251 177, 332.021 182.500 C 322.120 192.911, 322.653 192.796, 334.585 181.944 C 345.858 171.693, 372.496 139.597, 379.307 128.060 C 382.048 123.416, 380.507 124.403, 376.955 129.565 M 352.924 155.250 C 351.140 157.588, 341.540 167.792, 331.590 177.926 C 321.641 188.061, 316.650 193.620, 320.500 190.280 C 330.015 182.026, 349.749 161.568, 353.812 155.746 C 357.927 149.849, 357.310 149.504, 352.924 155.250 M 290.161 203.661 C 282.979 224.497, 281.111 232.108, 286.896 216.958 C 291.378 205.220, 298.259 183.926, 297.738 183.405 C 297.494 183.161, 294.084 192.276, 290.161 203.661 M 389.500 205.465 C 381.800 206.216, 372.350 207.336, 368.500 207.953 C 360.794 209.188, 343.018 213.931, 341.607 215.128 C 340.718 215.883, 346.470 214.593, 357.058 211.663 C 369.718 208.161, 385.101 206.577, 406.500 206.575 C 425.992 206.573, 428.146 206.756, 436.500 209.122 C 441.450 210.524, 446.400 211.977, 447.500 212.351 C 448.600 212.725, 447.250 211.959, 444.500 210.649 C 432.568 204.964, 413.269 203.145, 389.500 205.465 M 262.656 242.675 C 258.931 255.587, 257.585 260.453, 254.548 272 C 252.595 279.425, 250.089 288.875, 248.979 293 C 241.609 320.394, 225.866 408.027, 227.152 414.500 C 227.371 415.600, 228.373 411.100, 229.378 404.500 C 234.986 367.706, 241.869 335.046, 260.115 258.653 C 262.329 249.387, 263.924 241.591, 263.661 241.328 C 263.398 241.065, 262.946 241.671, 262.656 242.675 M 176.115 316.183 C 173.625 323.803, 171 343.660, 171.003 354.849 C 171.013 392.191, 185.996 422.202, 212.822 438.614 C 212.999 438.722, 212.042 440.558, 210.694 442.693 C 206.129 449.924, 202.251 458.464, 198.977 468.500 C 196.291 476.729, 195.629 480.553, 195.239 490.089 C 194.676 503.844, 195.705 509.468, 200.635 519.578 C 204.819 528.158, 213.835 537.810, 221.172 541.564 C 225.543 543.801, 234.038 546.295, 234.775 545.558 C 234.956 545.377, 232.943 544.190, 230.302 542.920 C 223.859 539.821, 214.537 530.352, 211.493 523.813 C 208.395 517.159, 208.250 509.086, 211.006 496.624 C 212.962 487.775, 220.070 470.399, 226.574 458.567 C 230.230 451.915, 230.852 449, 228.615 449 C 225.934 449, 214.505 474.372, 210.859 488.418 C 209.705 492.863, 208.189 500.325, 207.490 505 C 206.270 513.157, 206.215 513.278, 206.125 508 C 206.005 500.955, 209.022 486.732, 212.808 476.500 C 215.073 470.379, 222.228 454.568, 225.749 447.904 C 226.047 447.340, 218.616 442, 217.534 442 C 216.654 442, 209.898 456.062, 206.294 465.396 C 199.531 482.907, 197.343 500.185, 200.422 511.754 C 201.192 514.643, 201.456 516.782, 201.011 516.507 C 199.284 515.439, 197.557 505.088, 197.674 496.500 C 197.868 482.222, 204.462 460.675, 213.237 445.645 C 216.346 440.321, 216.092 439.273, 210.923 436.088 C 205.698 432.869, 194.924 422.478, 190.978 416.853 C 188.743 413.667, 186.937 410.709, 186.966 410.280 C 187.094 408.325, 183.885 401.998, 182.758 401.985 C 181.897 401.974, 181.965 401.676, 182.974 401.037 C 183.945 400.423, 184.706 400.513, 185.208 401.303 C 185.797 402.229, 185.973 402.226, 185.985 401.290 C 186.001 400.007, 181.046 395, 179.760 395 C 179.342 395, 179 393.902, 179 392.559 C 179 391.216, 178.548 389.839, 177.996 389.498 C 177.444 389.157, 177.256 387.668, 177.577 386.189 C 177.983 384.320, 177.870 383.914, 177.205 384.858 C 175.948 386.642, 173.254 374.536, 172.363 363.101 C 171.851 356.526, 171.979 354.869, 172.954 355.472 C 173.921 356.069, 173.954 355.782, 173.100 354.186 C 172.495 353.056, 172.052 351.089, 172.116 349.816 C 172.217 347.802, 172.290 347.761, 172.675 349.500 C 173.654 353.924, 173.861 354.100, 175.974 352.291 C 177.903 350.638, 178.834 346.868, 177.250 347.118 C 173.985 347.634, 172.909 345.070, 175.102 342 C 175.963 340.795, 176.077 340.942, 175.681 342.749 C 175.410 343.986, 175.596 345.250, 176.094 345.558 C 176.989 346.111, 177.438 343.911, 177.023 341 C 176.674 338.548, 175.921 338.387, 174.418 340.443 C 173.638 341.509, 173 341.936, 173 341.391 C 173 340.846, 173.462 339.938, 174.027 339.373 C 174.591 338.809, 175.154 336.963, 175.277 335.271 C 175.399 333.579, 175.799 332.379, 176.165 332.604 C 176.530 332.829, 177.057 332.447, 177.336 331.756 C 177.614 331.065, 177.878 332.169, 177.921 334.209 C 178.063 340.893, 180.235 353.448, 181.690 356 L 183.115 358.500 182.549 356 C 180.358 346.313, 178.893 334.588, 178.698 325.164 C 178.573 319.099, 178.184 313.851, 177.835 313.501 C 177.485 313.152, 176.712 314.359, 176.115 316.183 M 402 323.235 C 394.575 327.652, 384.675 333.287, 380 335.759 C 375.325 338.230, 371.024 340.629, 370.442 341.089 C 369.860 341.550, 359.898 346.648, 348.304 352.419 C 336.710 358.190, 322.786 365.471, 317.362 368.600 C 304.096 376.251, 287.706 387.039, 288.357 387.691 C 288.647 387.981, 290.148 387.329, 291.692 386.242 C 298.322 381.575, 325.552 366.217, 340.401 358.769 C 366.874 345.492, 398.625 327.692, 412.487 318.358 C 421.189 312.498, 415.974 314.923, 402 323.235 M 175.444 326.444 C 175.068 328.451, 175.010 330.343, 175.315 330.649 C 175.621 330.954, 176.179 329.562, 176.556 327.556 C 176.932 325.549, 176.990 323.657, 176.685 323.351 C 176.379 323.046, 175.821 324.438, 175.444 326.444 M 340.500 351.845 C 315.463 364.522, 299.353 373.943, 292.744 379.772 C 289.305 382.805, 291.884 382.080, 296.652 378.673 C 303.347 373.890, 310.253 369.909, 326 361.758 C 355.984 346.236, 365.943 340.864, 368.167 339.011 C 369.450 337.941, 370.275 337.088, 370 337.114 C 369.725 337.141, 356.450 343.769, 340.500 351.845 M 328.861 346.059 L 326.500 348.119 329.250 346.444 C 330.762 345.523, 332 344.597, 332 344.385 C 332 343.604, 331.165 344.050, 328.861 346.059 M 517.775 353.828 C 514.076 358.711, 510.768 363.441, 510.423 364.339 C 510.055 365.299, 511.686 369.788, 514.383 375.236 C 520.819 388.235, 524.048 398.232, 524.711 407.205 C 525.784 421.737, 522.412 425.211, 499 433.702 C 482.184 439.800, 435.780 450, 424.851 450 C 423.348 450, 421.798 450.519, 421.406 451.152 C 420.885 451.996, 421.874 452.105, 425.097 451.561 C 427.519 451.153, 437.600 449.473, 447.500 447.829 C 471.897 443.777, 473.971 443.388, 477.993 442.110 C 482.192 440.776, 482.259 440.771, 481.585 441.863 C 481.291 442.337, 478.902 443.319, 476.276 444.045 C 473.649 444.771, 469.634 446.347, 467.354 447.548 C 461.712 450.519, 458.287 451.296, 457.662 449.748 C 457.362 449.005, 457.126 449.207, 457.079 450.250 C 457.036 451.212, 456.339 452, 455.531 452 C 454.637 452, 454.288 452.586, 454.638 453.500 C 454.955 454.325, 455.884 455, 456.703 455 C 457.521 455, 459.386 455.620, 460.846 456.378 C 466.930 459.537, 468.944 460.235, 470.382 459.684 C 471.391 459.296, 471.722 459.562, 471.370 460.478 C 470.992 461.463, 471.432 461.700, 472.921 461.310 C 476.028 460.498, 475.464 462.867, 472.250 464.131 C 468.001 465.803, 443.201 470.011, 426 471.978 C 417.332 472.970, 412.704 473.802, 415.500 473.868 C 424.945 474.088, 456.395 469.433, 475.833 464.939 C 488.466 462.019, 505.636 456.277, 512.294 452.746 C 520.560 448.364, 526.439 442.809, 530.915 435.154 C 536.756 425.166, 538.483 417.190, 538.422 400.500 C 538.388 391.227, 537.804 383.967, 536.694 379 C 534.307 368.316, 528.012 349.232, 526.111 346.914 C 524.558 345.021, 524.257 345.271, 517.775 353.828 M 321.732 350.536 C 319.679 351.931, 318 353.287, 318 353.550 C 318 353.813, 319.800 352.837, 322 351.381 C 325.493 349.070, 326.674 348, 325.732 348 C 325.585 348, 323.785 349.141, 321.732 350.536 M 522.469 351.060 C 521.546 352.845, 519.472 355.415, 517.860 356.772 C 514.609 359.507, 511.348 365, 512.974 365 C 513.538 365, 514 364.605, 514 364.121 C 514 363.638, 515.307 362.701, 516.905 362.039 C 519.499 360.965, 520.470 359.526, 521.522 355.198 C 521.696 354.482, 522.586 352.755, 523.499 351.361 C 524.412 349.967, 524.932 348.599, 524.654 348.320 C 524.375 348.042, 523.392 349.275, 522.469 351.060 M 516.459 359.067 C 516.096 359.653, 516.014 360.348, 516.276 360.610 C 516.538 360.872, 517.019 360.392, 517.345 359.543 C 518.021 357.781, 517.445 357.471, 516.459 359.067 M 183.618 362 C 183.955 363.925, 184.567 365.950, 184.978 366.500 C 185.388 367.050, 185.992 368.625, 186.319 370 C 186.646 371.375, 187.614 373.400, 188.470 374.500 C 189.966 376.422, 189.340 374.504, 184.391 362 L 183.006 358.500 183.618 362 M 521.560 360.934 C 520.143 362.499, 520.030 363.010, 521.095 363.040 C 521.868 363.062, 521.263 363.751, 519.750 364.572 C 518.237 365.393, 517 366.301, 517 366.591 C 517 366.881, 517.563 366.803, 518.250 366.418 C 518.938 366.033, 518.687 366.569, 517.693 367.609 C 515.987 369.395, 515.831 369.403, 514.894 367.750 C 514.348 366.788, 513.473 366, 512.950 366 C 511.563 366, 511.789 368.644, 513.308 370.179 C 514.028 370.905, 515.686 374.087, 516.992 377.250 C 519.187 382.561, 521 384.635, 521 381.833 C 521 381.192, 521.289 380.956, 521.643 381.309 C 521.996 381.663, 521.745 382.602, 521.085 383.397 C 520.089 384.597, 520.247 384.748, 522.017 384.285 C 523.663 383.855, 524.016 383.201, 523.568 381.417 C 523.215 380.007, 523.513 378.793, 524.335 378.303 C 526.293 377.135, 527.116 372.846, 525.708 371.139 C 524.775 370.009, 524.772 369.583, 525.694 369.273 C 526.350 369.052, 526.657 368.270, 526.376 367.537 C 526.094 366.803, 526.340 365.908, 526.922 365.548 C 527.646 365.101, 527.657 364.516, 526.956 363.697 C 526.393 363.039, 525.369 361.683, 524.681 360.684 C 523.483 358.944, 523.351 358.955, 521.560 360.934 M 530.331 365.748 C 530.424 367.534, 530.837 368.997, 531.250 368.998 C 532.204 369.001, 532.101 367.070, 531.011 364.500 C 530.331 362.896, 530.196 363.144, 530.331 365.748 M 225.195 371.500 C 225.215 373.150, 225.439 373.704, 225.693 372.731 C 225.947 371.758, 225.930 370.408, 225.656 369.731 C 225.382 369.054, 225.175 369.850, 225.195 371.500 M 191.824 380.990 C 192.746 383.184, 193.847 384.984, 194.270 384.990 C 194.694 384.995, 194.122 383.200, 193 381 C 190.370 375.846, 189.661 375.840, 191.824 380.990 M 196 388 C 196.589 389.100, 197.295 390, 197.570 390 C 197.845 390, 197.589 389.100, 197 388 C 196.411 386.900, 195.705 386, 195.430 386 C 195.155 386, 195.411 386.900, 196 388 M 522.418 388.332 C 522.738 389.339, 523 390.577, 523 391.082 C 523 391.587, 523.450 392, 524 392 C 525.448 392, 525.230 390.664, 523.418 388.441 C 521.971 386.665, 521.886 386.656, 522.418 388.332 M 178 388.409 C 178 388.599, 178.675 389.315, 179.500 390 C 180.365 390.718, 181 390.815, 181 390.229 C 181 389.671, 180.325 388.955, 179.500 388.638 C 178.675 388.322, 178 388.219, 178 388.409 M 524.717 394.750 C 524.496 395.163, 524.686 396.625, 525.139 398 C 525.961 400.495, 525.962 400.494, 525.627 397.785 C 525.442 396.292, 525.788 394.865, 526.395 394.614 C 527.142 394.306, 527.114 394.132, 526.309 394.079 C 525.654 394.036, 524.937 394.337, 524.717 394.750 M 180 396.882 C 180 397.432, 180.450 398.160, 181 398.500 C 181.550 398.840, 182 398.668, 182 398.118 C 182 397.568, 181.550 396.840, 181 396.500 C 180.450 396.160, 180 396.332, 180 396.882 M 212 406.378 C 212 406.585, 212.787 407.373, 213.750 408.128 C 215.336 409.371, 215.371 409.336, 214.128 407.750 C 212.821 406.084, 212 405.555, 212 406.378 M 199 424.393 C 199 424.609, 199.675 425.045, 200.500 425.362 C 201.325 425.678, 202 425.501, 202 424.969 C 202 424.436, 201.325 424, 200.500 424 C 199.675 424, 199 424.177, 199 424.393 M 483.813 440.683 C 484.534 440.972, 485.397 440.936, 485.729 440.604 C 486.061 440.272, 485.471 440.036, 484.417 440.079 C 483.252 440.127, 483.015 440.364, 483.813 440.683 M 451 450.094 C 451 450.592, 451.900 451, 453 451 C 454.100 451, 455 450.827, 455 450.617 C 455 450.406, 454.100 449.998, 453 449.710 C 451.900 449.423, 451 449.595, 451 450.094 M 406.500 452 C 401.749 452.652, 401.699 452.689, 405.500 452.744 C 407.700 452.776, 411.975 452.460, 415 452.042 C 420.414 451.293, 420.430 451.282, 416 451.298 C 413.525 451.307, 409.250 451.623, 406.500 452 M 393.750 453.706 C 394.988 453.944, 397.012 453.944, 398.250 453.706 C 399.488 453.467, 398.475 453.272, 396 453.272 C 393.525 453.272, 392.512 453.467, 393.750 453.706 M 261 462.833 C 262.865 464.057, 275.066 467.267, 275.647 466.687 C 275.881 466.453, 273.199 465.540, 269.689 464.658 C 266.178 463.776, 262.449 462.783, 261.402 462.452 C 259.893 461.973, 259.810 462.052, 261 462.833 M 277.500 467.495 C 279.167 468.224, 293.394 471.004, 295 470.914 C 297.105 470.796, 286.437 468.278, 281 467.610 C 278.525 467.306, 276.950 467.254, 277.500 467.495 M 298.250 471.689 C 299.212 471.941, 300.788 471.941, 301.750 471.689 C 302.712 471.438, 301.925 471.232, 300 471.232 C 298.075 471.232, 297.288 471.438, 298.250 471.689 M 305.750 472.706 C 306.988 472.944, 309.012 472.944, 310.250 472.706 C 311.488 472.467, 310.475 472.272, 308 472.272 C 305.525 472.272, 304.512 472.467, 305.750 472.706 M 314.750 473.706 C 315.988 473.944, 318.012 473.944, 319.250 473.706 C 320.488 473.467, 319.475 473.272, 317 473.272 C 314.525 473.272, 313.512 473.467, 314.750 473.706 M 407.500 473.745 C 406.400 473.923, 393.575 474.471, 379 474.962 L 352.500 475.854 380.905 475.439 C 396.527 475.211, 409.540 474.794, 409.821 474.512 C 410.628 473.706, 409.677 473.392, 407.500 473.745 M 323.750 474.706 C 324.988 474.944, 327.012 474.944, 328.250 474.706 C 329.488 474.467, 328.475 474.272, 326 474.272 C 323.525 474.272, 322.512 474.467, 323.750 474.706 M 338.750 475.732 C 341.087 475.943, 344.913 475.943, 347.250 475.732 C 349.587 475.522, 347.675 475.349, 343 475.349 C 338.325 475.349, 336.413 475.522, 338.750 475.732 M 423.451 496.280 C 419.499 500.560, 418.621 502.468, 422.078 499.263 L 425.569 496.025 433.785 504.283 C 438.303 508.826, 442 513.264, 442 514.146 C 442 515.028, 438.401 519.517, 434.003 524.121 L 426.006 532.492 416.773 523.260 L 407.541 514.028 413.021 508.305 L 418.500 502.582 413 507.536 C 409.975 510.261, 407.352 513.068, 407.171 513.774 C 406.990 514.479, 411.178 519.431, 416.478 524.778 L 426.113 534.500 435.045 525 C 439.957 519.775, 443.982 515.009, 443.988 514.409 C 443.995 513.809, 439.837 508.985, 434.750 503.689 L 425.500 494.060 423.451 496.280 M 423 522.755 C 423 524.443, 425.884 526.258, 427.551 525.619 C 428.418 525.286, 428.842 524.554, 428.494 523.991 C 428.146 523.428, 427.423 523.238, 426.887 523.570 C 426.351 523.901, 425.257 523.628, 424.456 522.964 C 423.624 522.273, 423 522.184, 423 522.755 M 430.917 582.406 C 430.688 582.629, 429.012 583.044, 427.194 583.328 C 416.038 585.067, 407.401 599.594, 411.013 610.541 C 412.786 615.913, 419.153 622.387, 425.273 625.039 C 438.261 630.668, 454.392 624.883, 459.447 612.782 C 461.364 608.192, 461.455 600.024, 459.637 595.673 C 457.674 590.976, 449.828 584.446, 444.549 583.117 C 440.236 582.031, 431.756 581.589, 430.917 582.406 M 574 582.960 C 564.205 583.301, 559.328 583.801, 560.750 584.317 C 562.981 585.128, 563 585.305, 563 605.067 L 563 625 560.441 625 C 558.990 625, 558.149 625.433, 558.500 626 C 559.208 627.146, 571.914 627.364, 574.668 626.277 C 576.170 625.685, 575.959 625.458, 573.500 625.020 L 570.500 624.484 570.216 614.492 L 569.931 604.500 576.466 604.835 C 580.060 605.020, 583 605.609, 583 606.144 C 583 606.680, 583.450 606.840, 584 606.500 C 584.550 606.160, 584.986 604.221, 584.968 602.191 C 584.940 598.908, 584.790 598.693, 583.608 600.250 C 582.597 601.582, 580.814 602, 576.140 602 L 570 602 570 594 L 570 586 577.686 586 C 584.200 586, 585.724 586.331, 587.686 588.174 L 590 590.349 590 586.174 C 590 583.878, 589.888 582.095, 589.750 582.210 C 589.612 582.326, 582.525 582.663, 574 582.960 M 52.658 584.180 C 54.611 585.124, 54.880 586.284, 55.483 596.362 C 55.849 602.488, 56.003 611.325, 55.824 616 C 55.521 623.939, 55.351 624.521, 53.250 624.820 C 52.013 624.995, 51 625.615, 51 626.198 C 51 626.913, 55.454 627.108, 64.750 626.799 C 76.297 626.415, 79.170 625.996, 82.684 624.184 C 87.613 621.642, 90 618.595, 90 614.843 C 90 610.085, 88.159 607.047, 83.614 604.301 L 79.187 601.628 82.094 598.913 C 87.642 593.730, 85.211 586.263, 77.257 584.054 C 72.115 582.627, 49.684 582.741, 52.658 584.180 M 132.564 590.750 C 130.569 595.013, 126.333 604.125, 123.152 611 C 119.271 619.385, 116.619 623.874, 115.095 624.636 C 113.846 625.261, 113.200 625.963, 113.662 626.197 C 115.544 627.149, 125.862 627.033, 126.468 626.052 C 126.869 625.403, 125.945 625, 124.059 625 C 120.227 625, 120.175 623.727, 123.708 616.522 L 126.417 611 136.110 611 C 145.776 611, 145.807 611.008, 146.805 613.750 C 147.355 615.263, 148.546 618.224, 149.450 620.331 C 151.044 624.043, 151.031 624.179, 149.047 624.698 C 147.921 624.992, 147 625.631, 147 626.117 C 147 627.344, 162.738 627.232, 163.500 626 C 163.840 625.450, 163.486 625, 162.714 625 C 160.320 625, 158.520 622.114, 148.525 602.250 C 143.197 591.663, 138.243 583, 137.516 583 C 136.788 583, 134.560 586.487, 132.564 590.750 M 192.372 584.148 C 194.113 585.160, 194.198 586.225, 193.589 599.368 C 192.608 620.532, 192.076 624.167, 189.880 624.742 C 188.858 625.009, 188.269 625.626, 188.570 626.114 C 189.329 627.341, 200 627.235, 200 626 C 200 625.450, 199.100 625, 198 625 C 196.087 625, 196.001 624.338, 196.014 609.750 C 196.021 601.362, 196.290 593.522, 196.610 592.327 C 197.067 590.624, 198.840 593.330, 204.800 604.827 C 208.983 612.897, 213.102 620.948, 213.953 622.717 C 214.804 624.487, 215.991 625.950, 216.592 625.967 C 217.192 625.985, 218.222 624.201, 218.881 622.002 C 219.883 618.658, 223.013 611.270, 230.745 594 C 231.807 591.628, 231.869 591.704, 231.950 595.500 C 231.997 597.700, 232.700 603.550, 233.514 608.500 C 234.327 613.450, 234.994 619.188, 234.996 621.250 C 234.999 624.335, 234.645 625, 233 625 C 231.900 625, 231 625.392, 231 625.872 C 231 626.352, 234.825 626.820, 239.500 626.912 C 244.823 627.017, 248 626.691, 248 626.040 C 248 625.468, 247.127 625, 246.059 625 C 244.991 625, 243.838 624.548, 243.497 623.995 C 242.883 623.001, 238.059 591.103, 238.020 587.782 C 238.009 586.837, 239.238 585.393, 240.750 584.572 L 243.500 583.080 238.821 583.040 C 236.185 583.017, 233.556 583.587, 232.798 584.345 C 232.058 585.085, 228.538 592.273, 224.976 600.320 C 221.414 608.366, 218.275 614.949, 218 614.949 C 217.725 614.950, 214.575 609.073, 211 601.890 C 201.061 581.919, 201.930 582.995, 195.765 583.030 C 191.483 583.055, 190.849 583.264, 192.372 584.148 M 290.306 583.644 C 289.650 583.911, 289.326 584.686, 289.588 585.367 C 290.072 586.629, 288.776 590.190, 284.262 600 C 275.260 619.564, 272.730 624.258, 270.929 624.729 C 269.868 625.006, 269 625.597, 269 626.042 C 269 627.129, 281.379 627.008, 283.122 625.904 C 284.050 625.315, 283.277 625.026, 280.750 625.015 C 278.688 625.007, 277 624.765, 277 624.478 C 277 624.191, 278.322 621.041, 279.937 617.478 L 282.875 611 291.980 611 L 301.085 611 304 617.164 C 306.954 623.410, 307.043 625, 304.441 625 C 303.648 625, 303 625.349, 303 625.776 C 303 626.897, 318.851 627.050, 319.540 625.935 C 319.858 625.421, 319.197 625, 318.072 625 C 316.773 625, 315.107 623.545, 313.513 621.020 C 312.131 618.831, 311 616.869, 311 616.660 C 311 616.451, 307.404 608.792, 303.008 599.640 C 295.027 583.024, 294.247 582.041, 290.306 583.644 M 343 584.293 L 345.500 585.557 345.771 605.279 L 346.042 625 343.521 625 C 342.135 625, 341 625.450, 341 626 C 341 626.588, 344.500 627, 349.500 627 C 354.500 627, 358 626.588, 358 626 C 358 625.450, 357.109 625, 356.019 625 C 353.471 625, 352.817 622.330, 353.199 613.479 L 353.500 606.500 357.100 606.199 C 360.582 605.907, 360.934 606.208, 367.906 615.444 C 371.869 620.694, 376.001 625.465, 377.086 626.046 C 378.172 626.627, 381.409 626.958, 384.280 626.781 C 389.081 626.486, 389.299 626.369, 387 625.324 C 384.006 623.964, 378.981 618.711, 372.678 610.353 C 368.221 604.444, 368.128 604.184, 370.271 603.634 C 371.497 603.320, 373.738 601.905, 375.250 600.491 C 377.301 598.573, 378 596.969, 378 594.182 C 378 585.386, 372.887 582.994, 354.128 583.015 C 342.487 583.027, 340.865 583.214, 343 584.293 M 489.250 584.162 L 492 585.167 492.006 598.333 C 492.012 613.328, 492.892 617.603, 496.845 621.834 C 501.797 627.136, 513.453 628.896, 520.565 625.417 C 526.466 622.530, 528.963 617.334, 528.984 607.901 C 529.012 594.706, 530.141 585, 531.647 585 C 532.391 585, 533 584.535, 533 583.966 C 533 583.342, 530.417 583.003, 526.479 583.112 C 519.884 583.293, 518.859 583.702, 523 584.500 C 524.249 584.741, 525.513 585.179, 525.808 585.475 C 526.104 585.771, 526.502 592.197, 526.693 599.756 C 527.075 614.900, 526.166 618.293, 520.620 622.434 C 517.289 624.921, 510.114 624.825, 505.620 622.232 C 500.092 619.042, 499.003 615.288, 499.002 599.403 C 499 585.771, 499.074 585.270, 501.250 584.220 C 503.056 583.350, 501.821 583.138, 495 583.147 C 488.141 583.156, 487.031 583.352, 489.250 584.162 M 62 593.008 L 62 601.274 68.690 600.737 C 76.341 600.123, 78 598.738, 78 592.964 C 78 588.017, 75.765 586.294, 68.250 585.446 L 62 584.742 62 593.008 M 353.424 586.338 C 353.141 587.075, 353.043 591.237, 353.205 595.588 L 353.500 603.500 356.470 603.838 C 366.397 604.966, 374.523 595.571, 369.250 589.061 C 366.465 585.623, 354.489 583.563, 353.424 586.338 M 429 585.648 C 425.989 586.847, 421.008 592.446, 419.855 595.928 C 416.896 604.869, 419.476 616.083, 425.603 620.902 C 434.210 627.673, 446.546 624.614, 451.104 614.579 C 453.367 609.594, 453.489 604.011, 451.482 597.251 C 449.320 589.970, 443.828 585.712, 436.108 585.329 C 433.024 585.176, 429.825 585.320, 429 585.648 M 131.950 598.647 C 130.052 602.899, 128.350 606.744, 128.167 607.189 C 127.983 607.635, 131.452 608, 135.874 608 L 143.915 608 141.159 602.250 C 139.643 599.087, 137.727 595.243, 136.901 593.707 L 135.399 590.914 131.950 598.647 M 287.696 599.713 C 285.663 604.045, 284 607.794, 284 608.044 C 284 608.295, 287.370 608.500, 291.488 608.500 C 300.131 608.500, 299.987 608.985, 294.565 598.169 L 291.392 591.837 287.696 599.713 M 62.215 613.226 L 62.500 623.500 69.837 623.500 C 76.637 623.500, 77.351 623.294, 79.587 620.694 C 82.136 617.730, 82.806 612.375, 81.041 609.076 C 79.290 605.805, 75.033 603.898, 68.415 603.420 L 61.930 602.953 62.215 613.226 M 191.195 661.551 C 189.378 662.843, 188.955 663.964, 189.195 666.845 C 189.459 670.005, 190.042 670.759, 193.500 672.413 C 201.557 676.267, 202.507 676.896, 202.859 678.615 C 203.675 682.602, 196.474 684.331, 190.950 681.474 C 187.721 679.804, 187.145 680.288, 189.527 682.670 C 190.367 683.510, 192.812 684.433, 194.961 684.722 C 197.894 685.115, 199.755 684.697, 202.433 683.041 C 205.415 681.198, 206 680.267, 206 677.362 C 206 674.004, 205.743 673.769, 198.431 670.437 C 191.951 667.484, 190.908 666.665, 191.181 664.744 C 191.468 662.722, 192.093 662.486, 197.500 662.362 C 200.800 662.287, 204.063 662.679, 204.750 663.235 C 205.644 663.958, 206 663.814, 206 662.729 C 206 660.824, 204.750 660.390, 198.500 660.124 C 195.184 659.983, 192.724 660.464, 191.195 661.551 M 233.022 661 C 232.237 661.500, 231.896 667, 232.650 667 C 232.870 667, 233.451 665.945, 233.941 664.655 C 234.605 662.909, 235.643 662.286, 238.003 662.219 L 241.174 662.129 240.837 673.066 L 240.500 684.002 243.500 683.986 C 245.270 683.976, 246.007 683.656, 245.298 683.205 C 244.272 682.553, 244.097 673.648, 244.907 663.307 C 245.009 662.004, 250.664 662.023, 252.750 663.333 C 253.551 663.836, 254 663.558, 254 662.559 C 254 661.702, 253.213 660.980, 252.250 660.956 C 236.926 660.568, 233.687 660.576, 233.022 661 M 338.500 660.954 C 335.750 661.356, 334.288 661.756, 335.250 661.843 C 336.795 661.982, 337 663.223, 337 672.417 C 337 679.814, 336.638 682.980, 335.750 683.338 C 335.063 683.615, 338.325 683.868, 343 683.899 C 353.438 683.969, 358.981 681.873, 360.954 677.110 C 362.379 673.670, 361.830 667.705, 359.871 665.345 C 356.577 661.375, 347.858 659.584, 338.500 660.954 M 391.740 660.729 C 388.318 661.087, 388.121 661.264, 389.553 662.696 C 390.820 663.963, 391.066 666.195, 390.814 674.137 L 390.500 684.004 394 683.886 C 395.925 683.821, 396.712 683.562, 395.750 683.311 C 394.224 682.912, 394 681.516, 394 672.427 C 394 663.825, 394.263 662, 395.500 662 C 396.325 662, 397 661.550, 397 661 C 397 660.450, 396.663 660.076, 396.250 660.168 C 395.837 660.261, 393.808 660.513, 391.740 660.729 M 428.251 662.250 C 421.595 666.900, 421.496 675.505, 428.031 681.409 C 431.207 684.279, 432.815 685, 436.035 685 C 445.008 685, 451 679.894, 451 672.247 C 451 668.374, 450.473 667.237, 447.118 663.882 C 443.488 660.253, 442.853 660, 437.354 660 C 432.875 660, 430.703 660.537, 428.251 662.250 M 282.987 661.971 C 284.089 662.668, 284.491 664.962, 284.539 670.829 C 284.618 680.439, 286.238 683.579, 291.643 684.593 C 301.574 686.456, 305.996 681.753, 305.998 669.323 C 306 663.330, 306.289 662.071, 307.750 661.689 C 308.712 661.438, 307.475 661.232, 305 661.232 C 302.525 661.232, 301.288 661.438, 302.250 661.689 C 303.732 662.077, 304 663.367, 304 670.119 C 304 677.352, 303.761 678.330, 301.424 680.667 C 299.190 682.901, 298.235 683.174, 294.235 682.723 C 291.422 682.406, 289.110 681.503, 288.311 680.410 C 286.546 677.997, 286.496 662.370, 288.250 661.662 C 288.938 661.385, 287.700 661.129, 285.500 661.094 C 282.632 661.049, 281.921 661.297, 282.987 661.971 M 433.500 661.945 C 430.207 663.293, 427.861 666.611, 427.329 670.672 C 426.944 673.610, 427.380 675.314, 429.201 678 C 432.509 682.878, 436.088 684.456, 440.525 682.992 C 445.064 681.494, 447 678.560, 447 673.182 C 447 667.742, 444.514 663.375, 440.652 662.029 C 437.235 660.837, 436.236 660.826, 433.500 661.945 M 340.917 662.412 C 340.688 662.639, 340.643 667.139, 340.819 672.412 L 341.137 682 346.614 682 C 353.670 682, 357 679.150, 357 673.111 C 357 667.210, 355.568 664.394, 351.922 663.123 C 348.796 662.033, 341.759 661.579, 340.917 662.412" stroke="none" fill-rule="evenodd"/></symbol><symbol viewBox="0 0 650 720" id="approved-intro-gold"><path d="M175 315 C168 345 163 379 189 416 C216 454 295 476 400 475 C471 474 515 459 532 435 C547 414 540 374 525 340 L510 363 C520 389 525 410 516 424 C503 445 460 455 401 458 C315 463 242 448 211 426 C181 405 176 377 181 343 Z"/><path d="M425 495 L450 519 L425 543 L400 519 Z"/></symbol><symbol viewBox="0 0 650 720" id="approved-intro-full"><use href="#approved-intro-dark"/><use href="#approved-intro-gold"/></symbol></defs></svg>